<svg xmlns="http://www.w3.org/2000/svg" viewBox="418.501 14356.5 20.999 21">
  <defs>
    <style>
      .cls-1, .cls-2 {
        fill: none;
        stroke: #fac05a;
      }

      .cls-2 {
        stroke-linecap: round;
        stroke-linejoin: round;
      }
    </style>
  </defs>
  <g id="Icon-te" transform="translate(404.667 14038)">
    <path id="Path_31" data-name="Path 31" class="cls-1" d="M15.994,11.326a2,2,0,0,0-1.445-.66,2.064,2.064,0,0,0-1.462.655l-1.351,1.341c-.111-.06-.222-.115-.329-.17-.154-.077-.3-.149-.423-.226A14.661,14.661,0,0,1,7.465,9.074,8.619,8.619,0,0,1,6.311,7.261c.351-.319.675-.651.992-.97.12-.119.239-.243.359-.362a1.947,1.947,0,0,0,0-2.945L6.495,1.822c-.133-.132-.269-.268-.4-.4-.257-.264-.526-.536-.8-.792A2.028,2.028,0,0,0,3.861,0,2.1,2.1,0,0,0,2.407.626L2.4.634.945,2.094A3.108,3.108,0,0,0,.018,4.073,7.432,7.432,0,0,0,.565,7.231a18.309,18.309,0,0,0,3.271,5.431,20.107,20.107,0,0,0,6.7,5.222A10.473,10.473,0,0,0,14.3,18.991c.09,0,.184.009.269.009a3.228,3.228,0,0,0,2.467-1.056c0-.009.013-.013.017-.021a9.693,9.693,0,0,1,.748-.77c.184-.175.372-.358.556-.549A2.119,2.119,0,0,0,19,15.131a2.041,2.041,0,0,0-.658-1.46Z" transform="translate(14.333 320)"/>
    <path id="Path_32" data-name="Path 32" class="cls-2" d="M5,5A6.082,6.082,0,0,0,3.293,1.707,6.082,6.082,0,0,0,0,0" transform="translate(25.333 323)"/>
    <path id="Path_33" data-name="Path 33" class="cls-2" d="M9,9A10.937,10.937,0,0,0,5.927,3.073,10.937,10.937,0,0,0,0,0" transform="translate(25.333 319)"/>
  </g>
</svg>
