<svg xmlns="http://www.w3.org/2000/svg" viewBox="40 29 101.5 61.9">
  <defs>
    <style>
      .cls-1 {
        fill: #fff;
      }

      .cls-2 {
        fill: #fac05a;
      }
    </style>
  </defs>
  <g id="Logo" transform="translate(40 29)">
    <g id="Group_1" data-name="Group 1">
      <path id="Path_1" data-name="Path 1" class="cls-1" d="M6.4,5.7,7.5,6A3.316,3.316,0,0,1,6.2,8.1,3.232,3.232,0,0,1,4,8.8a3.593,3.593,0,0,1-2.2-.6A3.435,3.435,0,0,1,.5,6.6,5.555,5.555,0,0,1,0,4.3,5.932,5.932,0,0,1,.5,2,3.607,3.607,0,0,1,2,.5,4.552,4.552,0,0,1,4,0,2.817,2.817,0,0,1,6.1.7,3.825,3.825,0,0,1,7.3,2.5l-1,.2a2.54,2.54,0,0,0-.9-1.3A2.116,2.116,0,0,0,4,1a2.537,2.537,0,0,0-1.6.4,3.051,3.051,0,0,0-1,1.3,8.752,8.752,0,0,0-.2,1.6,5.412,5.412,0,0,0,.3,1.9,2.335,2.335,0,0,0,1,1.2,2.3,2.3,0,0,0,1.4.4,2.767,2.767,0,0,0,1.6-.5A3.54,3.54,0,0,0,6.4,5.7Z"/>
      <path id="Path_2" data-name="Path 2" class="cls-1" d="M10.5,4.5a4.859,4.859,0,0,1,1.1-3.3A3.847,3.847,0,0,1,14.5,0a3.7,3.7,0,0,1,2.1.6A3.638,3.638,0,0,1,18,2.2a5.54,5.54,0,0,1,0,4.6,2.758,2.758,0,0,1-1.5,1.5,3.645,3.645,0,0,1-2.1.5,3.7,3.7,0,0,1-2.1-.6,3.638,3.638,0,0,1-1.4-1.6A4.638,4.638,0,0,1,10.5,4.5Zm1.1,0a3.649,3.649,0,0,0,.8,2.4,2.723,2.723,0,0,0,2.1.9,2.878,2.878,0,0,0,2.1-.9,3.742,3.742,0,0,0,.8-2.5A3.425,3.425,0,0,0,17,2.6a2.94,2.94,0,0,0-1-1.2A2.822,2.822,0,0,0,14.5,1a3.227,3.227,0,0,0-2.1.8A3.952,3.952,0,0,0,11.6,4.5Z"/>
      <path id="Path_3" data-name="Path 3" class="cls-1" d="M22,8.7V.2h5.7v1H23.1V3.8h4v1h-4V8.7H22Z"/>
      <path id="Path_4" data-name="Path 4" class="cls-1" d="M31.2,8.7V.2h5.7v1H32.3V3.8h4v1h-4V8.7H31.2Z"/>
      <path id="Path_5" data-name="Path 5" class="cls-1" d="M40.3,8.7V.2h6.2v1h-5V3.8h4.7v1H41.5V7.7h5.2v1H40.3Z"/>
      <path id="Path_6" data-name="Path 6" class="cls-1" d="M50.1,8.7V.2h6.2v1h-5V3.8H56v1H51.3V7.7h5.2v1H50.1Z"/>
    </g>
    <g id="Group_2" data-name="Group 2">
      <path id="Path_7" data-name="Path 7" class="cls-1" d="M0,36.8A12.7,12.7,0,1,0,12.7,24.1v2A10.7,10.7,0,1,1,2,36.8Z"/>
      <path id="Path_8" data-name="Path 8" class="cls-1" d="M25.5,24.5A12.718,12.718,0,0,0,12.8,11.8a12.7,12.7,0,1,0-.1,25.4v-2A10.7,10.7,0,1,1,23.4,24.5Z"/>
    </g>
    <path id="Path_9" data-name="Path 9" class="cls-1" d="M85.1,11.7H59.7v2H71.4V49.6h2V13.7H85.1Z"/>
    <path id="Path_10" data-name="Path 10" class="cls-1" d="M101.5,24.1H76v2H87.7V61.9h2V26.1h11.8Z"/>
    <path id="Path_11" data-name="Path 11" class="cls-1" d="M40.8,36.8A12.718,12.718,0,0,0,28.1,24.1V61.9h2V49.4A12.8,12.8,0,0,0,40.8,36.8ZM30,47.4V26.3a10.724,10.724,0,0,1,0,21.1Z"/>
    <path id="Path_12" data-name="Path 12" class="cls-2" d="M56.1,24.1A12.718,12.718,0,0,0,43.4,36.8a12.438,12.438,0,0,0,2.2,7.1l10.6,18,10.6-18A12.438,12.438,0,0,0,69,36.8,13.023,13.023,0,0,0,56.1,24.1Zm0,23.5A10.75,10.75,0,1,1,66.8,36.8,10.734,10.734,0,0,1,56.1,47.6Z"/>
  </g>
</svg>
