<?xml version="1.0" encoding="utf-8"?>
<!-- Generator: Adobe Illustrator 21.1.0, SVG Export Plug-In . SVG Version: 6.00 Build 0)  -->
<svg version="1.1" xmlns="http://www.w3.org/2000/svg" xmlns:xlink="http://www.w3.org/1999/xlink" x="0px" y="0px"
	 viewBox="0 0 1856 1468" style="enable-background:new 0 0 1856 1468;" xml:space="preserve">
<style type="text/css">
	.st0{fill:#56d0a1;}
	.st1{fill:#EC7F83;}
	.st2{fill:#530F67;}
</style>
<g id="Color">
	<g>
		<g>
			<path class="st0" d="M1575,1141.9l47.9,112.3C1622.9,1210.1,1604.5,1170.2,1575,1141.9z"/>
			<path class="st0" d="M1593.8,1130c-7.9,0-15.6,0.7-23,2.1l4.2,9.8c29.5,28.3,47.9,68.2,47.9,112.3l-47.9-112.3
				c-28-26.9-66-43.4-107.8-43.4c-64.5,0-119.8,39.2-143.4,95c0,0,27.5,4.2-22.4,4.2c-49.9,0-90.4,40.5-90.4,90.4
				s40.5,90.4,90.4,90.4h292.5c68.6,0,124.3-55.6,124.3-124.3C1718.1,1185.6,1662.4,1130,1593.8,1130z"/>
		</g>
	</g>
	<g>
		<g>
			<path class="st0" d="M266.2,1107.5l36.6-75C280.5,1049.9,266.2,1077,266.2,1107.5z"/>
			<path class="st0" d="M394.4,1127l45.9-60C413.9,1074.2,394.4,1098.3,394.4,1127z"/>
			<path class="st0" d="M456.6,1064.9c-5.6,0-11,0.8-16.2,2.1l-45.9,60c0-28.7,19.5-52.8,45.9-60l4.3-5.7
				c-16.2-29.3-47.5-49.1-83.3-49.1c-22.1,0-42.5,7.5-58.6,20.2l-36.6,75c0-30.5,14.3-57.6,36.6-75l4.5-9.1
				c-14.4-9.7-31.8-15.4-50.5-15.4c-50,0-90.6,40.6-90.6,90.6s40.6,90.6,90.6,90.6h199.8c34.3,0,62.1-27.8,62.1-62.1
				S490.9,1064.9,456.6,1064.9z"/>
		</g>
	</g>
	<g>
		<rect x="811.9" y="987.5" class="st1" width="249" height="46.5"/>
	</g>
</g>
<g id="IDEA">
	<g>
		<g>
			<path class="st2" d="M1072.7,232.9c-43.9-25.7-89.8-38.7-136.2-38.7c-46.4,0-92.3,13-136.2,38.7c-40.5,23.7-77.6,56.9-110.1,98.8
				c-63.3,81.3-101,186-101,279.9c0,117.5,58.6,226.1,156.9,290.6c36.3,23.8,58,63.7,58,106.7v19.1c0,4.7,3.8,8.5,8.5,8.5h155.3
				c4.7,0,8.5-3.8,8.5-8.5c0-4.7-3.8-8.5-8.5-8.5H820.9v-10.6c0-48.7-24.5-93.9-65.6-120.9C661.8,826.6,606,723.3,606,611.6
				c0-181.4,147.4-400.4,330.4-400.4c183,0,330.4,219.1,330.4,400.4c0,111.7-55.8,215-149.3,276.4c-41.1,27-65.6,72.2-65.6,120.9
				v45.6H933.5c-4.7,0-8.5,3.8-8.5,8.5s3.8,8.5,8.5,8.5h126.9c4.7,0,8.5-3.8,8.5-8.5v-54.1c0-43,21.7-82.9,58-106.7
				c98.3-64.5,157-173.1,157-290.6c0-93.9-37.8-198.5-101-279.9C1150.2,289.8,1113.2,256.6,1072.7,232.9z"/>
		</g>
		<g>
			<path class="st2" d="M1060.9,979h-249c-4.7,0-8.5,3.8-8.5,8.5s3.8,8.5,8.5,8.5h249c4.7,0,8.5-3.8,8.5-8.5S1065.6,979,1060.9,979z
				"/>
		</g>
		<g>
			<path class="st2" d="M1099.8,570.8c-5.9,2.2-13.2,4.2-25.8,4.2c-15.5,0-22.8-3-31.2-6.4c-8.8-3.6-18.7-7.6-37.6-7.6
				c-18.9,0-28.8,4.1-37.6,7.6c-8.4,3.4-15.7,6.4-31.2,6.4c-15.5,0-22.8-3-31.2-6.4c-8.8-3.6-18.7-7.6-37.6-7.6
				c-18.9,0-28.8,4.1-37.6,7.6c-8.4,3.4-15.7,6.4-31.2,6.4c-12.6,0-19.8-2-25.7-4.2c-10.9-4-22.9-1.5-31.2,6.7
				c-8.4,8.2-11.2,20.1-7.4,31.1l130.2,378.2c1.5,4.4,6.4,6.8,10.8,5.3c4.4-1.5,6.8-6.4,5.3-10.8L750.4,603.1
				c-1.7-4.8-0.5-9.9,3.2-13.5c3.6-3.6,8.7-4.6,13.5-2.9c7.1,2.6,16.3,5.3,31.6,5.3c18.9,0,28.8-4.1,37.6-7.6
				c8.4-3.4,15.7-6.4,31.2-6.4c15.5,0,22.8,3,31.2,6.4c8.8,3.6,18.7,7.6,37.6,7.6c18.9,0,28.8-4.1,37.6-7.6
				c8.4-3.4,15.7-6.4,31.2-6.4c15.5,0,22.8,3,31.2,6.4c8.8,3.6,18.7,7.6,37.6,7.6c15.3,0,24.6-2.7,31.7-5.3
				c4.8-1.8,9.8-0.7,13.4,2.9c3.7,3.6,4.9,8.6,3.2,13.5L992.2,981.2c-1.5,4.4,0.8,9.3,5.3,10.8c0.9,0.3,1.8,0.5,2.8,0.5
				c3.5,0,6.8-2.2,8-5.7l130.2-378.2c3.8-11,1-23-7.4-31.1C1122.7,569.3,1110.7,566.7,1099.8,570.8z"/>
		</g>
		<g>
			<path class="st2" d="M881.9,1055h-22c-4.7,0-8.5,3.8-8.5,8.5s3.8,8.5,8.5,8.5h22c4.7,0,8.5-3.8,8.5-8.5S886.6,1055,881.9,1055z"
				/>
		</g>
		<g>
			<path class="st2" d="M930.9,643c-13,0-19.3-1.8-26-3.7c-7.5-2.1-15.3-4.3-30.6-4.3s-23.1,2.2-30.6,4.3c-6.7,1.9-13,3.7-26,3.7
				c-13,0-19.3-1.8-26-3.7c-7.5-2.1-15.3-4.3-30.6-4.3c-4.7,0-8.5,3.8-8.5,8.5s3.8,8.5,8.5,8.5c13,0,19.3,1.8,26,3.7
				c7.5,2.1,15.3,4.3,30.6,4.3c15.3,0,23.1-2.2,30.6-4.3c6.7-1.9,13-3.7,26-3.7c13,0,19.3,1.8,26,3.7c7.5,2.1,15.3,4.3,30.6,4.3
				c4.7,0,8.5-3.8,8.5-8.5S935.6,643,930.9,643z"/>
		</g>
		<g>
			<path class="st2" d="M936.4,80.5c-4.7,0-8.5,3.8-8.5,8.5v60c0,4.7,3.8,8.5,8.5,8.5c4.7,0,8.5-3.8,8.5-8.5V89
				C944.9,84.3,941.1,80.5,936.4,80.5z"/>
		</g>
		<g>
			<g>
				<path class="st2" d="M1425.9,526h-60c-4.7,0-8.5,3.8-8.5,8.5s3.8,8.5,8.5,8.5h60c4.7,0,8.5-3.8,8.5-8.5S1430.6,526,1425.9,526z"
					/>
			</g>
			<g>
				<path class="st2" d="M507.9,526h-60c-4.7,0-8.5,3.8-8.5,8.5s3.8,8.5,8.5,8.5h60c4.7,0,8.5-3.8,8.5-8.5S512.6,526,507.9,526z"/>
			</g>
		</g>
		<g>
			<g>
				<path class="st2" d="M558.1,770.3l-42.4,42.4c-3.3,3.3-3.3,8.7,0,12c1.7,1.7,3.8,2.5,6,2.5s4.4-0.8,6-2.5l42.4-42.4
					c3.3-3.3,3.3-8.7,0-12C566.8,767,561.4,767,558.1,770.3z"/>
			</g>
			<g>
				<path class="st2" d="M1314.2,770.3c-3.3-3.3-8.7-3.3-12,0c-3.3,3.3-3.3,8.7,0,12l42.4,42.4c1.7,1.7,3.8,2.5,6,2.5
					c2.2,0,4.4-0.8,6-2.5c3.3-3.3,3.3-8.7,0-12L1314.2,770.3z"/>
			</g>
		</g>
		<g>
			<g>
				<path class="st2" d="M1272.1,243.8l-42.4,42.4c-3.3,3.3-3.3,8.7,0,12c1.7,1.7,3.8,2.5,6,2.5s4.4-0.8,6-2.5l42.4-42.4
					c3.3-3.3,3.3-8.7,0-12C1280.8,240.5,1275.4,240.5,1272.1,243.8z"/>
			</g>
			<g>
				<path class="st2" d="M600.7,243.8c-3.3-3.3-8.7-3.3-12,0c-3.3,3.3-3.3,8.7,0,12l42.4,42.4c1.7,1.7,3.8,2.5,6,2.5
					c2.2,0,4.4-0.8,6-2.5c3.3-3.3,3.3-8.7,0-12L600.7,243.8z"/>
			</g>
		</g>
	</g>
	<g>
		<g>
			<path class="st2" d="M1593.8,1121.5c-8.3,0-16.5,0.8-24.6,2.3c-4.6,0.9-7.7,5.3-6.8,9.9c0.9,4.6,5.3,7.7,9.9,6.8
				c7-1.3,14.2-2,21.5-2c63.8,0,115.8,51.9,115.8,115.8s-51.9,115.8-115.8,115.8h-292.5c-45.2,0-81.9-36.7-81.9-81.9
				s36.7-81.9,81.9-81.9c45.2,0,81.9,36.7,81.9,81.9c0,4.7,3.8,8.5,8.5,8.5c4.7,0,8.5-3.8,8.5-8.5c0-54.5-44.4-98.9-98.9-98.9
				c-54.5,0-98.9,44.4-98.9,98.9s44.4,98.9,98.9,98.9h292.5c73.2,0,132.8-59.6,132.8-132.8S1667,1121.5,1593.8,1121.5z"/>
		</g>
		<g>
			<path class="st2" d="M1467.1,1090c-66.1,0-125.5,39.3-151.2,100.2c-1.8,4.3,0.2,9.3,4.5,11.1c4.3,1.8,9.3-0.2,11.1-4.5
				c23.1-54.6,76.4-89.8,135.6-89.8c81.2,0,147.2,66,147.2,147.2c0,4.7,3.8,8.5,8.5,8.5c4.7,0,8.5-3.8,8.5-8.5
				C1631.4,1163.7,1557.7,1090,1467.1,1090z"/>
		</g>
	</g>
	<g>
		<g>
			<path class="st2" d="M456.6,1056.4c-38.9,0-70.6,31.7-70.6,70.6c0,4.7,3.8,8.5,8.5,8.5c4.7,0,8.5-3.8,8.5-8.5
				c0-29.6,24.1-53.6,53.6-53.6c29.6,0,53.6,24.1,53.6,53.6s-24.1,53.6-53.6,53.6H256.7c-45.3,0-82.1-36.8-82.1-82.1
				c0-45.3,36.8-82.1,82.1-82.1c16.4,0,32.2,4.8,45.7,13.9c3.9,2.6,9.2,1.6,11.8-2.3c2.6-3.9,1.6-9.2-2.3-11.8
				c-16.4-11-35.5-16.8-55.2-16.8c-54.6,0-99.1,44.5-99.1,99.1s44.5,99.1,99.1,99.1h199.8c38.9,0,70.6-31.7,70.6-70.6
				S495.5,1056.4,456.6,1056.4z"/>
		</g>
		<g>
			<path class="st2" d="M361.4,1003.8c-57.2,0-103.7,46.5-103.7,103.7c0,4.7,3.8,8.5,8.5,8.5c4.7,0,8.5-3.8,8.5-8.5
				c0-47.8,38.9-86.7,86.7-86.7c31.5,0,60.6,17.1,75.9,44.7c2.3,4.1,7.4,5.6,11.6,3.3c4.1-2.3,5.6-7.4,3.3-11.6
				C433.8,1024.3,399.1,1003.8,361.4,1003.8z"/>
		</g>
	</g>
	<g>
		<path class="st2" d="M707.9,1181h-144c-4.7,0-8.5,3.8-8.5,8.5s3.8,8.5,8.5,8.5h144c4.7,0,8.5-3.8,8.5-8.5S712.6,1181,707.9,1181z"
			/>
	</g>
	<g>
		<path class="st2" d="M802.9,1181h-43c-4.7,0-8.5,3.8-8.5,8.5s3.8,8.5,8.5,8.5h43c4.7,0,8.5-3.8,8.5-8.5S807.6,1181,802.9,1181z"/>
	</g>
	<g>
		<path class="st2" d="M609.9,1121h-48c-4.7,0-8.5,3.8-8.5,8.5s3.8,8.5,8.5,8.5h48c4.7,0,8.5-3.8,8.5-8.5S614.6,1121,609.9,1121z"/>
	</g>
	<g>
		<path class="st2" d="M1555.9,156h-160c-4.7,0-8.5,3.8-8.5,8.5s3.8,8.5,8.5,8.5h160c4.7,0,8.5-3.8,8.5-8.5S1560.6,156,1555.9,156z"
			/>
	</g>
	<g>
		<path class="st2" d="M1622.9,328h-83c-4.7,0-8.5,3.8-8.5,8.5s3.8,8.5,8.5,8.5h83c4.7,0,8.5-3.8,8.5-8.5S1627.6,328,1622.9,328z"/>
	</g>
	<g>
		<path class="st2" d="M403.9,141h-156c-4.7,0-8.5,3.8-8.5,8.5s3.8,8.5,8.5,8.5h156c4.7,0,8.5-3.8,8.5-8.5S408.6,141,403.9,141z"/>
	</g>
	<g>
		<path class="st2" d="M265.9,304h-100c-4.7,0-8.5,3.8-8.5,8.5s3.8,8.5,8.5,8.5h100c4.7,0,8.5-3.8,8.5-8.5S270.6,304,265.9,304z"/>
	</g>
	<g>
		<g>
			<path class="st2" d="M304.4,643.5c-4.7,0-8.5,3.8-8.5,8.5v43c0,4.7,3.8,8.5,8.5,8.5c4.7,0,8.5-3.8,8.5-8.5v-43
				C312.9,647.3,309.1,643.5,304.4,643.5z"/>
		</g>
		<g>
			<path class="st2" d="M324.9,665h-42c-4.7,0-8.5,3.8-8.5,8.5s3.8,8.5,8.5,8.5h42c4.7,0,8.5-3.8,8.5-8.5S329.6,665,324.9,665z"/>
		</g>
	</g>
	<g>
		<g>
			<path class="st2" d="M1308.4,982.5c-4.7,0-8.5,3.8-8.5,8.5v43c0,4.7,3.8,8.5,8.5,8.5c4.7,0,8.5-3.8,8.5-8.5v-43
				C1316.9,986.3,1313.1,982.5,1308.4,982.5z"/>
		</g>
		<g>
			<path class="st2" d="M1328.9,1004h-42c-4.7,0-8.5,3.8-8.5,8.5s3.8,8.5,8.5,8.5h42c4.7,0,8.5-3.8,8.5-8.5S1333.6,1004,1328.9,1004
				z"/>
		</g>
	</g>
	<g>
		<g>
			<path class="st2" d="M377.4,1288.5c-4.7,0-8.5,3.8-8.5,8.5v43c0,4.7,3.8,8.5,8.5,8.5c4.7,0,8.5-3.8,8.5-8.5v-43
				C385.9,1292.3,382.1,1288.5,377.4,1288.5z"/>
		</g>
		<g>
			<path class="st2" d="M397.9,1310h-42c-4.7,0-8.5,3.8-8.5,8.5s3.8,8.5,8.5,8.5h42c4.7,0,8.5-3.8,8.5-8.5S402.6,1310,397.9,1310z"
				/>
		</g>
	</g>
	<g>
		<g>
			<path class="st2" d="M991.4,1245.5c-4.7,0-8.5,3.8-8.5,8.5v43c0,4.7,3.8,8.5,8.5,8.5c4.7,0,8.5-3.8,8.5-8.5v-43
				C999.9,1249.3,996.1,1245.5,991.4,1245.5z"/>
		</g>
		<g>
			<path class="st2" d="M1011.9,1267h-42c-4.7,0-8.5,3.8-8.5,8.5s3.8,8.5,8.5,8.5h42c4.7,0,8.5-3.8,8.5-8.5S1016.6,1267,1011.9,1267
				z"/>
		</g>
	</g>
	<g>
		<g>
			<path class="st2" d="M1644.4,436.5c-4.7,0-8.5,3.8-8.5,8.5v43c0,4.7,3.8,8.5,8.5,8.5c4.7,0,8.5-3.8,8.5-8.5v-43
				C1652.9,440.3,1649.1,436.5,1644.4,436.5z"/>
		</g>
		<g>
			<path class="st2" d="M1664.9,458h-42c-4.7,0-8.5,3.8-8.5,8.5s3.8,8.5,8.5,8.5h42c4.7,0,8.5-3.8,8.5-8.5S1669.6,458,1664.9,458z"
				/>
		</g>
	</g>
</g>
</svg>
