<?xml version="1.0" encoding="utf-8"?>
<!-- Generator: Adobe Illustrator 21.1.0, SVG Export Plug-In . SVG Version: 6.00 Build 0)  -->
<svg version="1.1" xmlns="http://www.w3.org/2000/svg" xmlns:xlink="http://www.w3.org/1999/xlink" x="0px" y="0px"
	 viewBox="0 0 1656 1656" style="enable-background:new 0 0 1656 1656;" xml:space="preserve">
<style type="text/css">
	.st0{fill:#56d0a1;}
	.st1{fill:#EC7F83;}
	.st2{fill:#530F67;}
</style>
<g id="Color">
	<g>
		<path class="st0" d="M811.8,439.9c-137.1,0-248.3,111.2-248.3,248.3s111.2,248.3,248.3,248.3s248.3-111.2,248.3-248.3
			S948.9,439.9,811.8,439.9z M811.8,827.2c-76.8,0-139-62.2-139-139s62.2-139,139-139s139,62.2,139,139S888.5,827.2,811.8,827.2z"/>
	</g>
	<g>
		<rect x="1087.9" y="1115.5" class="st1" width="284" height="356.5"/>
	</g>
	<g>
		<rect x="251.6" y="1301" class="st0" width="284" height="60.1"/>
	</g>
</g>
<g id="SUCCESS">
	<g>
		<g>
			<g>
				<path class="st2" d="M811.8,540.8c-81.3,0-147.5,66.2-147.5,147.5s66.2,147.5,147.5,147.5s147.5-66.2,147.5-147.5
					S893.1,540.8,811.8,540.8z M811.8,818.8c-72,0-130.5-58.5-130.5-130.5s58.5-130.5,130.5-130.5s130.5,58.5,130.5,130.5
					S883.7,818.8,811.8,818.8z"/>
			</g>
			<g>
				<path class="st2" d="M811.8,431.4c-68.6,0-133.1,26.7-181.6,75.2c-48.5,48.5-75.2,113-75.2,181.6s26.7,133.1,75.2,181.6
					c48.5,48.5,113,75.2,181.6,75.2c68.6,0,133.1-26.7,181.6-75.2c48.5-48.5,75.2-113,75.2-181.6s-26.7-133.1-75.2-181.6
					C944.9,458.2,880.4,431.4,811.8,431.4z M811.8,928.1C679.5,928.1,572,820.5,572,688.2s107.6-239.8,239.8-239.8
					s239.8,107.6,239.8,239.8S944,928.1,811.8,928.1z"/>
			</g>
			<g>
				<path class="st2" d="M1064.4,435.6c-32.8-32.8-71-58.6-113.6-76.6c-44-18.6-90.8-28.1-139.1-28.1c-48.2,0-95,9.4-139.1,28.1
					c-42.5,18-80.7,43.8-113.6,76.6c-32.8,32.8-58.6,71-76.6,113.6c-18.6,44-28.1,90.8-28.1,139.1s9.4,95,28.1,139.1
					c18,42.5,43.8,80.7,76.6,113.6c32.8,32.8,71,58.6,113.6,76.6c44,18.6,90.8,28.1,139.1,28.1c48.2,0,95-9.4,139.1-28.1
					c42.5-18,80.7-43.8,113.6-76.6c32.8-32.8,58.6-71,76.6-113.6c18.6-44,28.1-90.8,28.1-139.1s-9.4-95-28.1-139.1
					C1122.9,506.6,1097.2,468.4,1064.4,435.6z M811.8,1028.5c-187.6,0-340.3-152.6-340.3-340.2S624.2,348,811.8,348
					S1152,500.6,1152,688.2S999.4,1028.5,811.8,1028.5z"/>
			</g>
			<g>
				<path class="st2" d="M811.8,626.6c-34,0-61.6,27.7-61.6,61.6s27.7,61.6,61.6,61.6c34,0,61.6-27.7,61.6-61.6
					S845.8,626.6,811.8,626.6z M811.8,732.9c-24.6,0-44.6-20-44.6-44.6s20-44.6,44.6-44.6c24.6,0,44.6,20,44.6,44.6
					S836.4,732.9,811.8,732.9z"/>
			</g>
		</g>
		<g>
			<g>
				<path class="st2" d="M1323.8,165L806.9,681.9c-3.3,3.3-3.3,8.7,0,12c1.7,1.7,3.8,2.5,6,2.5c2.2,0,4.4-0.8,6-2.5l516.9-516.9
					c3.3-3.3,3.3-8.7,0-12C1332.5,161.7,1327.1,161.7,1323.8,165z"/>
			</g>
			<g>
				<path class="st2" d="M1363,229.9l-84.8-14.2c-2.7-0.5-5.5,0.4-7.4,2.4l-120.3,120.3c-2.2,2.2-3.1,5.6-2.1,8.6
					c1,3,3.5,5.3,6.7,5.8l84.9,14.3c0.5,0.1,0.9,0.1,1.4,0.1c2.2,0,4.4-0.9,6-2.5l57.4-57.3c2.4-2.4,3.2-6.1,1.9-9.3
					c-1.3-3.2-4.4-5.3-7.9-5.3h-39.8c-4.7,0-8.5,3.8-8.5,8.5s3.8,8.5,8.5,8.5h19.3l-39.8,39.7l-64.3-10.8l105.6-105.6l64.3,10.7
					l-13.1,13.2c-3.3,3.3-3.3,8.7,0,12c3.3,3.3,8.7,3.3,12,0l24.8-24.8c2.2-2.3,3-5.6,2.1-8.6C1368.7,232.7,1366.1,230.5,1363,229.9
					z"/>
			</g>
			<g>
				<path class="st2" d="M1228.4,260.5l-94.5,94.5l-10.7-64.2l91.4-91.4l4.4,26.1c0.8,4.6,5.2,7.8,9.8,7c4.6-0.8,7.8-5.2,7-9.8
					l-7.1-42.4c-0.5-3.1-2.8-5.7-5.8-6.7c-3-1-6.4-0.2-8.6,2.1L1108,281.9c-1.9,1.9-2.8,4.7-2.4,7.4l14.1,84.9
					c0.5,3.1,2.8,5.7,5.8,6.7c0.9,0.3,1.7,0.4,2.6,0.4c2.2,0,4.4-0.9,6-2.5l106.2-106.2c3.3-3.3,3.3-8.7,0-12
					C1237.1,257.2,1231.7,257.2,1228.4,260.5z"/>
			</g>
		</g>
	</g>
	<g>
		<g>
			<path class="st2" d="M535.6,1292.5h-284c-4.7,0-8.5,3.8-8.5,8.5v171c0,4.7,3.8,8.5,8.5,8.5h284c4.7,0,8.5-3.8,8.5-8.5v-171
				C544.1,1296.3,540.3,1292.5,535.6,1292.5z M527.1,1463.5h-267v-154h267V1463.5z"/>
		</g>
		<g>
			<path class="st2" d="M929,1190.3H645c-4.7,0-8.5,3.8-8.5,8.5V1472c0,4.7,3.8,8.5,8.5,8.5h284c4.7,0,8.5-3.8,8.5-8.5v-273.2
				C937.5,1194.1,933.7,1190.3,929,1190.3z M920.5,1463.5h-267v-256.2h267V1463.5z"/>
		</g>
		<g>
			<path class="st2" d="M1372,1037.3h-284c-4.7,0-8.5,3.8-8.5,8.5V1472c0,4.7,3.8,8.5,8.5,8.5h284c4.7,0,8.5-3.8,8.5-8.5v-426.2
				C1380.5,1041.1,1376.7,1037.3,1372,1037.3z M1363.5,1463.5h-267v-409.2h267V1463.5z"/>
		</g>
	</g>
	<g>
		<path class="st2" d="M449.9,224h-258c-4.7,0-8.5,3.8-8.5,8.5s3.8,8.5,8.5,8.5h258c4.7,0,8.5-3.8,8.5-8.5S454.6,224,449.9,224z"/>
	</g>
	<g>
		<path class="st2" d="M269.9,504h-163c-4.7,0-8.5,3.8-8.5,8.5c0,4.7,3.8,8.5,8.5,8.5h163c4.7,0,8.5-3.8,8.5-8.5
			C278.4,507.8,274.6,504,269.9,504z"/>
	</g>
	<g>
		<path class="st2" d="M1542.9,733h-162c-4.7,0-8.5,3.8-8.5,8.5s3.8,8.5,8.5,8.5h162c4.7,0,8.5-3.8,8.5-8.5S1547.6,733,1542.9,733z"
			/>
	</g>
	<g>
		<path class="st2" d="M1401.9,504h-136c-4.7,0-8.5,3.8-8.5,8.5c0,4.7,3.8,8.5,8.5,8.5h136c4.7,0,8.5-3.8,8.5-8.5
			C1410.4,507.8,1406.6,504,1401.9,504z"/>
	</g>
	<g>
		<g>
			<path class="st2" d="M333.4,870.5c-4.7,0-8.5,3.8-8.5,8.5v43c0,4.7,3.8,8.5,8.5,8.5c4.7,0,8.5-3.8,8.5-8.5v-43
				C341.9,874.3,338.1,870.5,333.4,870.5z"/>
		</g>
		<g>
			<path class="st2" d="M353.9,892h-42c-4.7,0-8.5,3.8-8.5,8.5s3.8,8.5,8.5,8.5h42c4.7,0,8.5-3.8,8.5-8.5S358.6,892,353.9,892z"/>
		</g>
	</g>
	<g>
		<g>
			<path class="st2" d="M635.4,223.5c-4.7,0-8.5,3.8-8.5,8.5v43c0,4.7,3.8,8.5,8.5,8.5c4.7,0,8.5-3.8,8.5-8.5v-43
				C643.9,227.3,640.1,223.5,635.4,223.5z"/>
		</g>
		<g>
			<path class="st2" d="M655.9,245h-42c-4.7,0-8.5,3.8-8.5,8.5s3.8,8.5,8.5,8.5h42c4.7,0,8.5-3.8,8.5-8.5S660.6,245,655.9,245z"/>
		</g>
	</g>
	<g>
		<g>
			<path class="st2" d="M136.4,1085.5c-4.7,0-8.5,3.8-8.5,8.5v43c0,4.7,3.8,8.5,8.5,8.5s8.5-3.8,8.5-8.5v-43
				C144.9,1089.3,141.1,1085.5,136.4,1085.5z"/>
		</g>
		<g>
			<path class="st2" d="M156.9,1107h-42c-4.7,0-8.5,3.8-8.5,8.5s3.8,8.5,8.5,8.5h42c4.7,0,8.5-3.8,8.5-8.5S161.6,1107,156.9,1107z"
				/>
		</g>
	</g>
	<g>
		<g>
			<path class="st2" d="M1462.4,870.5c-4.7,0-8.5,3.8-8.5,8.5v43c0,4.7,3.8,8.5,8.5,8.5c4.7,0,8.5-3.8,8.5-8.5v-43
				C1470.9,874.3,1467.1,870.5,1462.4,870.5z"/>
		</g>
		<g>
			<path class="st2" d="M1482.9,892h-42c-4.7,0-8.5,3.8-8.5,8.5s3.8,8.5,8.5,8.5h42c4.7,0,8.5-3.8,8.5-8.5S1487.6,892,1482.9,892z"
				/>
		</g>
	</g>
	<g>
		<g>
			<path class="st2" d="M1482.4,266.5c-4.7,0-8.5,3.8-8.5,8.5v43c0,4.7,3.8,8.5,8.5,8.5c4.7,0,8.5-3.8,8.5-8.5v-43
				C1490.9,270.3,1487.1,266.5,1482.4,266.5z"/>
		</g>
		<g>
			<path class="st2" d="M1502.9,288h-42c-4.7,0-8.5,3.8-8.5,8.5s3.8,8.5,8.5,8.5h42c4.7,0,8.5-3.8,8.5-8.5S1507.6,288,1502.9,288z"
				/>
		</g>
	</g>
	<g>
		<path class="st2" d="M1203.9,1107h-107c-4.7,0-8.5,3.8-8.5,8.5s3.8,8.5,8.5,8.5h107c4.7,0,8.5-3.8,8.5-8.5
			S1208.6,1107,1203.9,1107z"/>
	</g>
	<g>
		<path class="st2" d="M928.9,1263h-142c-4.7,0-8.5,3.8-8.5,8.5s3.8,8.5,8.5,8.5h142c4.7,0,8.5-3.8,8.5-8.5S933.6,1263,928.9,1263z"
			/>
	</g>
	<g>
		<path class="st2" d="M1366.9,1107h-51c-4.7,0-8.5,3.8-8.5,8.5s3.8,8.5,8.5,8.5h51c4.7,0,8.5-3.8,8.5-8.5S1371.6,1107,1366.9,1107z
			"/>
	</g>
	<g>
		<path class="st2" d="M747.9,1263h-44c-4.7,0-8.5,3.8-8.5,8.5s3.8,8.5,8.5,8.5h44c4.7,0,8.5-3.8,8.5-8.5S752.6,1263,747.9,1263z"/>
	</g>
	<g>
		<path class="st2" d="M393.9,1359h-134c-4.7,0-8.5,3.8-8.5,8.5s3.8,8.5,8.5,8.5h134c4.7,0,8.5-3.8,8.5-8.5S398.6,1359,393.9,1359z"
			/>
	</g>
	<g>
		<path class="st2" d="M1277.4,1359.5c-4.7,0-8.5,3.8-8.5,8.5v104c0,4.7,3.8,8.5,8.5,8.5c4.7,0,8.5-3.8,8.5-8.5v-104
			C1285.9,1363.3,1282.1,1359.5,1277.4,1359.5z"/>
	</g>
	<g>
		<path class="st2" d="M1183.4,1272.5c-4.7,0-8.5,3.8-8.5,8.5v191c0,4.7,3.8,8.5,8.5,8.5c4.7,0,8.5-3.8,8.5-8.5v-191
			C1191.9,1276.3,1188.1,1272.5,1183.4,1272.5z"/>
	</g>
	<g>
		<path class="st2" d="M1183.4,1199.5c-4.7,0-8.5,3.8-8.5,8.5v20c0,4.7,3.8,8.5,8.5,8.5c4.7,0,8.5-3.8,8.5-8.5v-20
			C1191.9,1203.3,1188.1,1199.5,1183.4,1199.5z"/>
	</g>
	<g>
		<path class="st2" d="M740.4,1411.5c-4.7,0-8.5,3.8-8.5,8.5v52c0,4.7,3.8,8.5,8.5,8.5c4.7,0,8.5-3.8,8.5-8.5v-52
			C748.9,1415.3,745.1,1411.5,740.4,1411.5z"/>
	</g>
	<g>
		<path class="st2" d="M834.4,1437.5c-4.7,0-8.5,3.8-8.5,8.5v24c0,4.7,3.8,8.5,8.5,8.5c4.7,0,8.5-3.8,8.5-8.5v-24
			C842.9,1441.3,839.1,1437.5,834.4,1437.5z"/>
	</g>
</g>
</svg>
