<?xml version="1.0" encoding="utf-8"?>
<!-- Generator: Adobe Illustrator 21.1.0, SVG Export Plug-In . SVG Version: 6.00 Build 0)  -->
<svg version="1.1" xmlns="http://www.w3.org/2000/svg" xmlns:xlink="http://www.w3.org/1999/xlink" x="0px" y="0px"
	 viewBox="0 0 1760 1648" style="enable-background:new 0 0 1760 1648;" xml:space="preserve">
<style type="text/css">
	.st0{fill:#EC7F83;}
	.st1{fill:#56d0a1;}
	.st2{fill:#530F67;}
</style>
<g id="Color">
	<g>
		<circle class="st0" cx="1492.9" cy="764.5" r="45.1"/>
	</g>
	<g>
		<polygon class="st0" points="225.5,410.1 313.3,335.5 225.5,260.9 		"/>
	</g>
	<g>
		<path class="st1" d="M1447.8,1257.4c-59.2,0-107.2,48-107.2,107.2c0,59.2,48,107.2,107.2,107.2c59.2,0,107.2-48,107.2-107.2
			C1555,1305.4,1507,1257.4,1447.8,1257.4z M1447.8,1412.6c-26.5,0-48-21.5-48-48c0-26.5,21.5-48,48-48c26.5,0,48,21.5,48,48
			C1495.8,1391.1,1474.3,1412.6,1447.8,1412.6z"/>
	</g>
	<g>
		<rect x="1124.2" y="440.1" class="st1" width="58.8" height="697.3"/>
	</g>
</g>
<g id="MARKETING">
	<g>
		<g>
			<path class="st2" d="M1678.1,1358c-5.7-4.6-140.5-111.9-225.3-111.9c-84.7,0-229,107.1-235.1,111.7c-2.1,1.6-3.4,4.1-3.4,6.8
				s1.3,5.2,3.4,6.8c6.1,4.6,150.4,111.7,235.1,111.7c84.9,0,219.6-107.3,225.3-111.9c2-1.6,3.2-4.1,3.2-6.6
				S1680.1,1359.6,1678.1,1358z M1452.8,1466.1c-67.3,0-182-77.7-215.5-101.5c33.5-23.8,148.2-101.5,215.5-101.5
				c67.3,0,175.1,78,206.1,101.5C1627.9,1388.1,1520.1,1466.1,1452.8,1466.1z"/>
		</g>
		<g>
			<path class="st2" d="M1447.8,1248.9c-63.8,0-115.7,51.9-115.7,115.7s51.9,115.7,115.7,115.7c63.8,0,115.7-51.9,115.7-115.7
				S1511.6,1248.9,1447.8,1248.9z M1447.8,1463.3c-54.4,0-98.7-44.3-98.7-98.7s44.3-98.7,98.7-98.7c54.4,0,98.7,44.3,98.7,98.7
				S1502.2,1463.3,1447.8,1463.3z"/>
		</g>
		<g>
			<path class="st2" d="M1447.8,1308.1c-31.2,0-56.5,25.3-56.5,56.5s25.3,56.5,56.5,56.5c4.7,0,8.5-3.8,8.5-8.5s-3.8-8.5-8.5-8.5
				c-21.8,0-39.5-17.7-39.5-39.5s17.7-39.5,39.5-39.5c21.8,0,39.5,17.7,39.5,39.5c0,4.7,3.8,8.5,8.5,8.5c4.7,0,8.5-3.8,8.5-8.5
				C1504.3,1333.5,1478.9,1308.1,1447.8,1308.1z"/>
		</g>
	</g>
	<g>
		<g>
			<path class="st2" d="M257.4,182.5c-84.4,0-153,68.6-153,153s68.6,153,153,153c84.4,0,153-68.6,153-153S341.7,182.5,257.4,182.5z
				 M257.4,471.5c-75,0-136-61-136-136s61-136,136-136c75,0,136,61,136,136S332.4,471.5,257.4,471.5z"/>
		</g>
		<g>
			<path class="st2" d="M318.8,329L231,254.4c-2.5-2.1-6.1-2.6-9.1-1.2c-3,1.4-4.9,4.4-4.9,7.7v149.2c0,3.3,1.9,6.3,4.9,7.7
				c1.1,0.5,2.4,0.8,3.6,0.8c2,0,3.9-0.7,5.5-2l87.8-74.6c1.9-1.6,3-4,3-6.5S320.7,330.6,318.8,329z M234,391.7V279.3l66.1,56.2
				L234,391.7z"/>
		</g>
	</g>
	<g>
		<g>
			<path class="st2" d="M484.2,680.3h-92c-4.7,0-8.5,3.8-8.5,8.5v200c0,4.7,3.8,8.5,8.5,8.5h92c4.7,0,8.5-3.8,8.5-8.5v-200
				C492.7,684.1,488.9,680.3,484.2,680.3z M475.7,880.3h-75v-183h75V880.3z"/>
		</g>
		<g>
			<path class="st2" d="M612.2,589.8h-128c-4.7,0-8.5,3.8-8.5,8.5v381c0,4.7,3.8,8.5,8.5,8.5h42c4.7,0,8.5-3.8,8.5-8.5
				c0-4.7-3.8-8.5-8.5-8.5h-33.5v-364h111v364h-30.5c-4.7,0-8.5,3.8-8.5,8.5c0,4.7,3.8,8.5,8.5,8.5h39c4.7,0,8.5-3.8,8.5-8.5v-381
				C620.7,593.6,616.9,589.8,612.2,589.8z"/>
		</g>
		<g>
			<path class="st2" d="M1126.7,1086.7l-506-158.1V648.8l506.3-178c4.4-1.6,6.8-6.4,5.2-10.8c-1.6-4.4-6.4-6.8-10.8-5.2l-512,180
				c-3.4,1.2-5.7,4.4-5.7,8v292c0,3.7,2.4,7,6,8.1l512,160c0.8,0.3,1.7,0.4,2.5,0.4c3.6,0,7-2.3,8.1-6
				C1133.7,1092.8,1131.2,1088.1,1126.7,1086.7z"/>
		</g>
		<g>
			<path class="st2" d="M1183,431.6h-58.8c-4.7,0-8.5,3.8-8.5,8.5v346.7c0,4.7,3.8,8.5,8.5,8.5c4.7,0,8.5-3.8,8.5-8.5V448.6h41.8
				v680.3h-41.8v-86.2c0-4.7-3.8-8.5-8.5-8.5c-4.7,0-8.5,3.8-8.5,8.5v94.7c0,4.7,3.8,8.5,8.5,8.5h58.8c4.7,0,8.5-3.8,8.5-8.5V440.1
				C1191.5,435.4,1187.7,431.6,1183,431.6z"/>
		</g>
		<g>
			<path class="st2" d="M596.2,976.7c-1.4-4.5-6.2-6.9-10.7-5.5c-4.5,1.4-7,6.2-5.5,10.7l96.5,304.2h-62l-98.1-309.3
				c-1.4-4.5-6.2-7-10.7-5.5c-4.5,1.4-7,6.2-5.5,10.7l100,315.3c1.1,3.5,4.4,5.9,8.1,5.9h79.8c2.7,0,5.3-1.3,6.9-3.5
				c1.6-2.2,2.1-5,1.2-7.6L596.2,976.7z"/>
		</g>
		<g>
			<path class="st2" d="M1123.9,860.5c-4.7,0-8.5,3.8-8.5,8.5v40c0,4.7,3.8,8.5,8.5,8.5c4.7,0,8.5-3.8,8.5-8.5v-40
				C1132.4,864.3,1128.6,860.5,1123.9,860.5z"/>
		</g>
	</g>
	<g>
		<g>
			<path class="st2" d="M240.9,534.5c-4.7,0-8.5,3.8-8.5,8.5v15c0,4.7,3.8,8.5,8.5,8.5s8.5-3.8,8.5-8.5v-15
				C249.4,538.3,245.6,534.5,240.9,534.5z"/>
		</g>
		<g>
			<path class="st2" d="M240.9,668.5c-4.7,0-8.5,3.8-8.5,8.5v27c0,4.7,3.8,8.5,8.5,8.5s8.5-3.8,8.5-8.5v-27
				C249.4,672.3,245.6,668.5,240.9,668.5z"/>
			<path class="st2" d="M240.9,595.5c-4.7,0-8.5,3.8-8.5,8.5v27c0,4.7,3.8,8.5,8.5,8.5s8.5-3.8,8.5-8.5v-27
				C249.4,599.3,245.6,595.5,240.9,595.5z"/>
		</g>
		<g>
			<path class="st2" d="M255.4,756h-6v-6c0-4.7-3.8-8.5-8.5-8.5s-8.5,3.8-8.5,8.5v14.5c0,4.7,3.8,8.5,8.5,8.5h14.5
				c4.7,0,8.5-3.8,8.5-8.5S260.1,756,255.4,756z"/>
		</g>
		<g>
			<path class="st2" d="M313.4,756h-15c-4.7,0-8.5,3.8-8.5,8.5s3.8,8.5,8.5,8.5h15c4.7,0,8.5-3.8,8.5-8.5S318.1,756,313.4,756z"/>
		</g>
	</g>
	<g>
		<g>
			<path class="st2" d="M523.4,327h-15c-4.7,0-8.5,3.8-8.5,8.5s3.8,8.5,8.5,8.5h15c4.7,0,8.5-3.8,8.5-8.5S528.1,327,523.4,327z"/>
		</g>
		<g>
			<path class="st2" d="M748.4,327h-28c-4.7,0-8.5,3.8-8.5,8.5s3.8,8.5,8.5,8.5h28c4.7,0,8.5-3.8,8.5-8.5S753.1,327,748.4,327z"/>
			<path class="st2" d="M673.4,327h-28c-4.7,0-8.5,3.8-8.5,8.5s3.8,8.5,8.5,8.5h28c4.7,0,8.5-3.8,8.5-8.5S678.1,327,673.4,327z"/>
			<path class="st2" d="M598.4,327h-28c-4.7,0-8.5,3.8-8.5,8.5s3.8,8.5,8.5,8.5h28c4.7,0,8.5-3.8,8.5-8.5S603.1,327,598.4,327z"/>
			<path class="st2" d="M823.4,327h-28c-4.7,0-8.5,3.8-8.5,8.5s3.8,8.5,8.5,8.5h28c4.7,0,8.5-3.8,8.5-8.5S828.1,327,823.4,327z"/>
			<path class="st2" d="M898.4,327h-28c-4.7,0-8.5,3.8-8.5,8.5s3.8,8.5,8.5,8.5h28c4.7,0,8.5-3.8,8.5-8.5S903.1,327,898.4,327z"/>
		</g>
		<g>
			<path class="st2" d="M959.9,327h-14.5c-4.7,0-8.5,3.8-8.5,8.5s3.8,8.5,8.5,8.5h6v7c0,4.7,3.8,8.5,8.5,8.5c4.7,0,8.5-3.8,8.5-8.5
				v-15.5C968.4,330.8,964.6,327,959.9,327z"/>
		</g>
		<g>
			<path class="st2" d="M959.9,378.5c-4.7,0-8.5,3.8-8.5,8.5v22c0,4.7,3.8,8.5,8.5,8.5c4.7,0,8.5-3.8,8.5-8.5v-22
				C968.4,382.3,964.6,378.5,959.9,378.5z"/>
		</g>
		<g>
			<path class="st2" d="M959.9,438.5c-4.7,0-8.5,3.8-8.5,8.5v15c0,4.7,3.8,8.5,8.5,8.5c4.7,0,8.5-3.8,8.5-8.5v-15
				C968.4,442.3,964.6,438.5,959.9,438.5z"/>
		</g>
	</g>
	<g>
		<g>
			<path class="st2" d="M1257.4,756h-15c-4.7,0-8.5,3.8-8.5,8.5s3.8,8.5,8.5,8.5h15c4.7,0,8.5-3.8,8.5-8.5S1262.1,756,1257.4,756z"
				/>
		</g>
		<g>
			<path class="st2" d="M1323.4,756h-25c-4.7,0-8.5,3.8-8.5,8.5s3.8,8.5,8.5,8.5h25c4.7,0,8.5-3.8,8.5-8.5S1328.1,756,1323.4,756z"
				/>
		</g>
		<g>
			<path class="st2" d="M1379.4,756h-15c-4.7,0-8.5,3.8-8.5,8.5s3.8,8.5,8.5,8.5h15c4.7,0,8.5-3.8,8.5-8.5S1384.1,756,1379.4,756z"
				/>
		</g>
	</g>
	<g>
		<g>
			<path class="st2" d="M1492.9,880.5c-4.7,0-8.5,3.8-8.5,8.5v15c0,4.7,3.8,8.5,8.5,8.5c4.7,0,8.5-3.8,8.5-8.5v-15
				C1501.4,884.3,1497.6,880.5,1492.9,880.5z"/>
		</g>
		<g>
			<path class="st2" d="M1492.9,1046.5c-4.7,0-8.5,3.8-8.5,8.5v35c0,4.7,3.8,8.5,8.5,8.5c4.7,0,8.5-3.8,8.5-8.5v-35
				C1501.4,1050.3,1497.6,1046.5,1492.9,1046.5z"/>
			<path class="st2" d="M1492.9,953.5c-4.7,0-8.5,3.8-8.5,8.5v35c0,4.7,3.8,8.5,8.5,8.5c4.7,0,8.5-3.8,8.5-8.5v-35
				C1501.4,957.3,1497.6,953.5,1492.9,953.5z"/>
		</g>
		<g>
			<path class="st2" d="M1492.9,1140.5c-4.7,0-8.5,3.8-8.5,8.5v15c0,4.7,3.8,8.5,8.5,8.5c4.7,0,8.5-3.8,8.5-8.5v-15
				C1501.4,1144.3,1497.6,1140.5,1492.9,1140.5z"/>
		</g>
	</g>
	<g>
		<path class="st2" d="M1492.9,710.9c-29.6,0-53.6,24.1-53.6,53.6s24.1,53.6,53.6,53.6c29.6,0,53.6-24.1,53.6-53.6
			S1522.5,710.9,1492.9,710.9z M1492.9,801.1c-20.2,0-36.6-16.4-36.6-36.6s16.4-36.6,36.6-36.6c20.2,0,36.6,16.4,36.6,36.6
			S1513.1,801.1,1492.9,801.1z"/>
	</g>
	<g>
		<path class="st2" d="M1447.4,252h-225c-4.7,0-8.5,3.8-8.5,8.5s3.8,8.5,8.5,8.5h225c4.7,0,8.5-3.8,8.5-8.5S1452.1,252,1447.4,252z"
			/>
	</g>
	<g>
		<path class="st2" d="M1616.4,390h-237c-4.7,0-8.5,3.8-8.5,8.5s3.8,8.5,8.5,8.5h237c4.7,0,8.5-3.8,8.5-8.5S1621.1,390,1616.4,390z"
			/>
	</g>
	<g>
		<path class="st2" d="M438.4,1404h-213c-4.7,0-8.5,3.8-8.5,8.5s3.8,8.5,8.5,8.5h213c4.7,0,8.5-3.8,8.5-8.5S443.1,1404,438.4,1404z"
			/>
	</g>
	<g>
		<path class="st2" d="M269.4,1286h-157c-4.7,0-8.5,3.8-8.5,8.5s3.8,8.5,8.5,8.5h157c4.7,0,8.5-3.8,8.5-8.5S274.1,1286,269.4,1286z"
			/>
	</g>
	<g>
		<g>
			<path class="st2" d="M422.9,1246.5c-4.7,0-8.5,3.8-8.5,8.5v43c0,4.7,3.8,8.5,8.5,8.5c4.7,0,8.5-3.8,8.5-8.5v-43
				C431.4,1250.3,427.6,1246.5,422.9,1246.5z"/>
		</g>
		<g>
			<path class="st2" d="M443.4,1268h-42c-4.7,0-8.5,3.8-8.5,8.5s3.8,8.5,8.5,8.5h42c4.7,0,8.5-3.8,8.5-8.5S448.1,1268,443.4,1268z"
				/>
		</g>
	</g>
	<g>
		<g>
			<path class="st2" d="M868.9,1155.5c-4.7,0-8.5,3.8-8.5,8.5v43c0,4.7,3.8,8.5,8.5,8.5c4.7,0,8.5-3.8,8.5-8.5v-43
				C877.4,1159.3,873.6,1155.5,868.9,1155.5z"/>
		</g>
		<g>
			<path class="st2" d="M889.4,1177h-42c-4.7,0-8.5,3.8-8.5,8.5s3.8,8.5,8.5,8.5h42c4.7,0,8.5-3.8,8.5-8.5S894.1,1177,889.4,1177z"
				/>
		</g>
	</g>
	<g>
		<g>
			<path class="st2" d="M1063.9,1382.5c-4.7,0-8.5,3.8-8.5,8.5v43c0,4.7,3.8,8.5,8.5,8.5c4.7,0,8.5-3.8,8.5-8.5v-43
				C1072.4,1386.3,1068.6,1382.5,1063.9,1382.5z"/>
		</g>
		<g>
			<path class="st2" d="M1084.4,1404h-42c-4.7,0-8.5,3.8-8.5,8.5s3.8,8.5,8.5,8.5h42c4.7,0,8.5-3.8,8.5-8.5S1089.1,1404,1084.4,1404
				z"/>
		</g>
	</g>
	<g>
		<g>
			<path class="st2" d="M1105.9,283.5c-4.7,0-8.5,3.8-8.5,8.5v43c0,4.7,3.8,8.5,8.5,8.5c4.7,0,8.5-3.8,8.5-8.5v-43
				C1114.4,287.3,1110.6,283.5,1105.9,283.5z"/>
		</g>
		<g>
			<path class="st2" d="M1126.4,305h-42c-4.7,0-8.5,3.8-8.5,8.5s3.8,8.5,8.5,8.5h42c4.7,0,8.5-3.8,8.5-8.5S1131.1,305,1126.4,305z"
				/>
		</g>
	</g>
	<g>
		<g>
			<path class="st2" d="M1447.9,568.5c-4.7,0-8.5,3.8-8.5,8.5v43c0,4.7,3.8,8.5,8.5,8.5c4.7,0,8.5-3.8,8.5-8.5v-43
				C1456.4,572.3,1452.6,568.5,1447.9,568.5z"/>
		</g>
		<g>
			<path class="st2" d="M1468.4,590h-42c-4.7,0-8.5,3.8-8.5,8.5s3.8,8.5,8.5,8.5h42c4.7,0,8.5-3.8,8.5-8.5S1473.1,590,1468.4,590z"
				/>
		</g>
	</g>
	<g>
		<g>
			<path class="st2" d="M170.9,900.5c-4.7,0-8.5,3.8-8.5,8.5v43c0,4.7,3.8,8.5,8.5,8.5s8.5-3.8,8.5-8.5v-43
				C179.4,904.3,175.6,900.5,170.9,900.5z"/>
		</g>
		<g>
			<path class="st2" d="M191.4,922h-42c-4.7,0-8.5,3.8-8.5,8.5s3.8,8.5,8.5,8.5h42c4.7,0,8.5-3.8,8.5-8.5S196.1,922,191.4,922z"/>
		</g>
	</g>
</g>
</svg>
