<svg xmlns="http://www.w3.org/2000/svg" viewBox="593 7113 60 51">
  <defs>
    <style>
      .cls-1 {
        fill: #ddd;
      }
    </style>
  </defs>
  <g id="Upload_Icon" data-name="Upload Icon" transform="translate(593 7108.5)">
    <path id="Path_25" data-name="Path 25" class="cls-1" d="M50.975,20.694A17.122,17.122,0,0,0,34.084,4.5a17.627,17.627,0,0,0-13.946,7.008c-.074-.039-.153-.065-.228-.1-.2-.1-.4-.188-.6-.269-.115-.045-.23-.086-.346-.127-.2-.071-.406-.133-.615-.19-.116-.031-.231-.063-.349-.09-.224-.051-.452-.09-.683-.124-.1-.015-.2-.035-.305-.047A9.278,9.278,0,0,0,16,10.5a9.01,9.01,0,0,0-9,9c0,.129.007.255.016.381A13.827,13.827,0,0,0,0,31.654,12.86,12.86,0,0,0,12.845,44.5H18a1,1,0,0,0,0-2H12.845A10.857,10.857,0,0,1,2,31.654,11.888,11.888,0,0,1,8.432,21.4L9,21.13V20.5c0-.123.008-.249.015-.375l.009-.175-.012-.188C9.007,19.675,9,19.588,9,19.5a6.953,6.953,0,0,1,7.917-6.933c.078.01.155.023.232.036a6.867,6.867,0,0,1,.792.177c.034.01.069.016.1.026a6.86,6.86,0,0,1,.838.322c.069.031.137.065.2.1a6.842,6.842,0,0,1,.707.4A7,7,0,0,1,23,19.5a1,1,0,0,0,2,0,8.979,8.979,0,0,0-3.2-6.871A15.838,15.838,0,0,1,34.084,6.5,15.1,15.1,0,0,1,48.932,20.387a19.042,19.042,0,0,0-4.083.125A1,1,0,0,0,45,22.5a.983.983,0,0,0,.152-.012,18.438,18.438,0,0,1,4.684,0A10.249,10.249,0,0,1,58,32.472,10.04,10.04,0,0,1,47.972,42.5H44a1,1,0,0,0,0,2h3.972A12.042,12.042,0,0,0,60,32.472,12.307,12.307,0,0,0,50.975,20.694Z"/>
    <path id="Path_26" data-name="Path 26" class="cls-1" d="M31.708,30.794a.99.99,0,0,0-.326-.217,1,1,0,0,0-1.09.217l-8,8a1,1,0,1,0,1.414,1.414L30,33.914V54.5a1,1,0,0,0,2,0V33.914l6.293,6.293a1,1,0,0,0,1.414-1.414Z"/>
  </g>
</svg>
