<svg xmlns="http://www.w3.org/2000/svg" viewBox="1447 2112 35 24">
  <defs>
    <style>
      .cls-1 {
        fill: #fcfcfc;
      }

      .cls-2 {
        fill: #005098;
      }

      .cls-3 {
        fill: #f6a500;
      }

      .cls-4 {
        fill: #0a5296;
      }

      .cls-5 {
        fill: #f4a428;
      }
    </style>
  </defs>
  <g id="Visa_Icon" data-name="Visa Icon" transform="translate(1447 2112)">
    <path id="Path_13" data-name="Path 13" class="cls-1" d="M33,24H2a2.006,2.006,0,0,1-2-2V2A2.006,2.006,0,0,1,2,0H33a2.006,2.006,0,0,1,2,2V22A2.006,2.006,0,0,1,33,24Z"/>
    <g id="Group_3" data-name="Group 3" transform="translate(3 7.7)">
      <path id="Path_14" data-name="Path 14" class="cls-2" d="M25.7,24l1.45-8.3H29.4L28,24Z" transform="translate(-15.85 -15.55)"/>
      <path id="Path_15" data-name="Path 15" class="cls-2" d="M39.9,15.75a6.345,6.345,0,0,0-2.05-.35c-2.25,0-3.8,1.15-3.85,2.75,0,1.2,1.15,1.85,2,2.25.9.4,1.2.65,1.15,1.05,0,.55-.7.8-1.35.8a5.015,5.015,0,0,1-2.15-.45l-.25-.1-.3,1.85a6.661,6.661,0,0,0,2.55.45c2.4,0,3.95-1.1,3.95-2.85,0-.95-.6-1.65-1.9-2.25-.8-.4-1.3-.65-1.25-1.05,0-.35.4-.7,1.3-.7a4.713,4.713,0,0,1,1.7.3l.2.1.25-1.8" transform="translate(-19.55 -15.4)"/>
      <path id="Path_16" data-name="Path 16" class="cls-2" d="M52,15.7H50.25a1.145,1.145,0,0,0-1.2.7L45.7,24h2.4l.5-1.25h2.9c.05.3.3,1.25.3,1.25h2.05L52,15.7m-2.8,5.35c.2-.5.9-2.3.9-2.3s.2-.5.3-.8l.15.7s.45,2,.5,2.4Z" transform="translate(-25.85 -15.55)"/>
      <path id="Path_17" data-name="Path 17" class="cls-2" d="M16.3,15.7l-2.2,5.65-.25-1.1a6.466,6.466,0,0,0-3.15-3.5L12.75,24h2.4l3.55-8.3H16.3" transform="translate(-8.35 -15.55)"/>
      <path id="Path_18" data-name="Path 18" class="cls-3" d="M9.7,15.7H6.05L6,15.9a7.443,7.443,0,0,1,5.5,4.35l-.8-3.8a.923.923,0,0,0-1-.75" transform="translate(-6 -15.55)"/>
    </g>
    <path id="Path_19" data-name="Path 19" class="cls-4" d="M35,5H0V2A2.006,2.006,0,0,1,2,0H33a2.006,2.006,0,0,1,2,2Z"/>
    <path id="Path_20" data-name="Path 20" class="cls-5" d="M0,38H35v3a2.006,2.006,0,0,1-2,2H2a2.006,2.006,0,0,1-2-2Z" transform="translate(0 -19)"/>
  </g>
</svg>
