<svg xmlns="http://www.w3.org/2000/svg" viewBox="923 5159.906 49.979 40">
  <defs>
    <style>
      .cls-1 {
        fill: #fff;
      }

      .cls-1, .cls-3 {
        stroke: #13110c;
        stroke-width: 2px;
      }

      .cls-2 {
        fill: #fac05a;
      }

      .cls-3, .cls-5 {
        fill: none;
      }

      .cls-4 {
        stroke: none;
      }
    </style>
  </defs>
  <g id="Icon-smoke" transform="translate(922.791 5109.197)">
    <g id="Rectangle_36" data-name="Rectangle 36" class="cls-1" transform="translate(0.209 79.736)">
      <rect class="cls-4" width="46.193" height="10.974" rx="2"/>
      <rect class="cls-5" x="1" y="1" width="44.193" height="8.974" rx="1"/>
    </g>
    <path id="Path_54" data-name="Path 54" class="cls-2" d="M363.491,62.5c-1.68-1.669-2.49-3.357-2.411-5.016a6.755,6.755,0,0,1,2.3-4.31,1.379,1.379,0,0,0,.208-1.944,1.393,1.393,0,0,0-1.956-.216,9.443,9.443,0,0,0-3.34,6.293c-.138,2.484.949,4.889,3.221,7.147a6.971,6.971,0,0,1,2.421,5.066,7.77,7.77,0,0,1-2.362,4.938,1.351,1.351,0,0,0-.1,1.954,1.541,1.541,0,0,0,1.966.1,10.494,10.494,0,0,0,3.281-6.9A9.553,9.553,0,0,0,363.491,62.5Z" transform="translate(-322.88 0)"/>
    <path id="Path_53" data-name="Path 53" class="cls-2" d="M427.791,62.5c-1.68-1.669-2.49-3.357-2.411-5.016a6.754,6.754,0,0,1,2.3-4.31,1.379,1.379,0,0,0,.207-1.944,1.394,1.394,0,0,0-1.957-.216,9.443,9.443,0,0,0-3.34,6.293c-.138,2.484.949,4.889,3.221,7.147a6.958,6.958,0,0,1,2.411,5.056,7.77,7.77,0,0,1-2.362,4.938,1.351,1.351,0,0,0-.1,1.954,1.541,1.541,0,0,0,1.966.1,10.494,10.494,0,0,0,3.281-6.9A9.6,9.6,0,0,0,427.791,62.5Z" transform="translate(-380.826 0)"/>
    <line id="Line_9" data-name="Line 9" class="cls-3" y2="7.981" transform="translate(13.766 81.232)"/>
  </g>
</svg>
