<svg xmlns="http://www.w3.org/2000/svg" viewBox="1589.5 2330.5 17.364 19">
  <defs>
    <style>
      .cls-1 {
        fill: none;
        stroke: #fff;
        stroke-linecap: square;
        stroke-miterlimit: 10;
      }
    </style>
  </defs>
  <g id="User_Icon" data-name="User Icon" transform="translate(903 2268)">
    <g id="Icon" transform="translate(685 62)">
      <path id="Path_48" data-name="Path 48" class="cls-1" d="M11.091,10h0A4.091,4.091,0,0,1,7,5.909V5.091A4.091,4.091,0,0,1,11.091,1h0a4.091,4.091,0,0,1,4.091,4.091v.818A4.091,4.091,0,0,1,11.091,10Z" transform="translate(-0.909)"/>
      <path id="Path_49" data-name="Path 49" class="cls-1" d="M18.364,20.016a3.265,3.265,0,0,0-2.4-3.155A22.7,22.7,0,0,0,10.182,16a22.7,22.7,0,0,0-5.781.861A3.265,3.265,0,0,0,2,20.016v1.712H18.364Z" transform="translate(0 -2.727)"/>
    </g>
  </g>
</svg>
